<svg width="40" height="40" viewBox="0 0 40 40" fill="none" xmlns="http://www.w3.org/2000/svg">
<path d="M29.2548 27.9166C26.9106 25.5727 23.7314 24.256 20.4165 24.256C17.1015 24.256 13.9223 25.5727 11.5781 27.9166M29.9998 6.33997C27.703 5.01395 24.9735 4.6546 22.4118 5.34098C19.8501 6.02736 17.6659 7.70324 16.3398 9.99997L33.6598 20C34.9858 17.7032 35.3452 14.9737 34.6588 12.412C33.9724 9.85025 32.2965 7.66609 29.9998 6.33997Z" stroke="#F4DF1E" stroke-width="2" stroke-linecap="round" stroke-linejoin="round"/>
<path d="M27.8867 16.6666C30.65 11.8832 31.595 7.25989 30 6.33989C28.405 5.41989 24.875 8.54989 22.1133 13.3332M25 14.9999L20 23.6599M5 32.0832C5.51882 31.8253 6.08749 31.6831 6.66667 31.6666C7.31583 31.653 7.95854 31.7976 8.53929 32.088C9.12005 32.3783 9.62138 32.8057 10 33.3332C10.3786 33.8607 10.88 34.2881 11.4607 34.5785C12.0415 34.8689 12.6842 35.0135 13.3333 34.9999C13.9825 35.0135 14.6252 34.8689 15.206 34.5785C15.7867 34.2881 16.288 33.8607 16.6667 33.3332C17.0453 32.8057 17.5466 32.3783 18.1274 32.088C18.7081 31.7976 19.3508 31.653 20 31.6666C20.6492 31.653 21.2919 31.7976 21.8726 32.088C22.4534 32.3783 22.9547 32.8057 23.3333 33.3332C23.712 33.8607 24.2133 34.2881 24.794 34.5785C25.3748 34.8689 26.0175 35.0135 26.6667 34.9999C27.3158 35.0135 27.9585 34.8689 28.5393 34.5785C29.12 34.2881 29.6214 33.8607 30 33.3332C30.3786 32.8057 30.88 32.3783 31.4607 32.088C32.0415 31.7976 32.6842 31.653 33.3333 31.6666C33.9125 31.6831 34.4812 31.8253 35 32.0832" stroke="#F4DF1E" stroke-width="2" stroke-linecap="round" stroke-linejoin="round"/>
</svg>
