<svg width="40" height="40" viewBox="0 0 40 40" fill="none" xmlns="http://www.w3.org/2000/svg">
<path d="M20 20H25C27.6522 20 30.1957 18.9464 32.0711 17.0711C33.9464 15.1957 35 12.6522 35 10V8.33333H30C27.3478 8.33333 24.8043 9.3869 22.9289 11.2623C21.0536 13.1376 20 15.6812 20 18.3333H15C12.3478 18.3333 9.8043 17.2798 7.92893 15.4044C6.05357 13.529 5 10.9855 5 8.33333V5H10C12.6522 5 15.1957 6.05357 17.0711 7.92893C18.9464 9.8043 20 12.3478 20 15V25M11.6667 25H28.3333V31.6667C28.3333 32.5507 27.9821 33.3986 27.357 34.0237C26.7319 34.6488 25.8841 35 25 35H15C14.1159 35 13.2681 34.6488 12.643 34.0237C12.0179 33.3986 11.6667 32.5507 11.6667 31.6667V25Z" stroke="#F4DF1E" stroke-width="2.5" stroke-linecap="round" stroke-linejoin="round"/>
</svg>
