<svg width="40" height="40" viewBox="0 0 40 40" fill="none" xmlns="http://www.w3.org/2000/svg">
<path fill-rule="evenodd" clip-rule="evenodd" d="M5.07917 18.4917C5.07917 19.3337 5.41367 20.1413 6.0091 20.7367C6.60453 21.3322 7.4121 21.6667 8.25417 21.6667H12.5V30.8333H7.08333C6.5308 30.8333 6.0009 31.0528 5.61019 31.4435C5.21949 31.8342 5 32.3641 5 32.9167C5 33.4692 5.21949 33.9991 5.61019 34.3898C6.0009 34.7805 6.5308 35 7.08333 35H32.9167C33.4692 35 33.9991 34.7805 34.3898 34.3898C34.7805 33.9991 35 33.4692 35 32.9167C35 32.3641 34.7805 31.8342 34.3898 31.4435C33.9991 31.0528 33.4692 30.8333 32.9167 30.8333H32.5192C32.6544 30.8302 32.7868 30.7943 32.905 30.7286C33.0232 30.6629 33.1237 30.5694 33.1976 30.4561C33.2716 30.3429 33.317 30.2134 33.3297 30.0788C33.3425 29.9441 33.3223 29.8084 33.2708 29.6833L31.9242 26.4092C31.8792 26.2994 31.8113 26.2006 31.725 26.1192L29.3958 23.9258L30.1775 20.9183C30.4192 21.36 30.67 21.76 30.9692 22.0983C31.3358 22.5133 31.7642 22.8267 32.3108 23.0317C32.8408 23.23 33.4442 23.3133 34.1442 23.3333C34.3652 23.3394 34.5796 23.2574 34.7401 23.1055C34.9007 22.9535 34.9943 22.7439 35.0004 22.5229C35.0065 22.3019 34.9245 22.0875 34.7725 21.9269C34.6206 21.7664 34.411 21.6727 34.19 21.6667C33.585 21.65 33.185 21.5792 32.8958 21.4708C32.6326 21.374 32.3991 21.2103 32.2183 20.9958C32.0033 20.7517 31.7908 20.4108 31.5242 19.9033C31.3683 19.6067 31.2108 19.2867 31.0308 18.92C30.8958 18.645 30.7475 18.345 30.5775 18.0075C30.2817 17.4225 29.6592 17.0608 29.1583 16.8758C28.6542 16.6892 27.9667 16.5675 27.3867 16.775C24.8825 17.6675 23.465 19.5692 22.545 22.2275C22.4727 22.4365 22.4864 22.6656 22.5831 22.8645C22.6797 23.0633 22.8514 23.2156 23.0604 23.2879C23.2694 23.3602 23.4985 23.3465 23.6974 23.2498C23.8962 23.1532 24.0486 22.9815 24.1208 22.7725C24.6292 21.3042 25.2583 20.2117 26.1083 19.4342L25.8367 22.425C25.8253 22.5508 25.8426 22.6775 25.8873 22.7956C25.9321 22.9137 26.0031 23.02 26.095 23.1067L30.4517 27.2092L31.7292 30.3175C31.7908 30.4672 31.8947 30.5957 32.0282 30.6873C32.1617 30.7789 32.319 30.8297 32.4808 30.8333H23.3417C23.5167 30.8317 23.6917 30.775 23.8417 30.6608L26.3417 28.7375C26.4796 28.6312 26.5807 28.4843 26.6308 28.3175L27.3492 25.9383L25.9717 24.6342L25.8042 25.2892L25.1125 27.58L22.825 29.3392C22.6875 29.4448 22.5863 29.5907 22.5357 29.7566C22.485 29.9225 22.4873 30.1 22.5424 30.2645C22.5974 30.4289 22.7024 30.5721 22.8427 30.6741C22.983 30.7761 23.1516 30.8317 23.325 30.8333H14.1667V21.6667H18.5717C19.2797 21.6666 19.9675 21.4298 20.5255 20.994C21.0836 20.5581 21.4799 19.9483 21.6516 19.2613C21.8232 18.5744 21.7603 17.8497 21.4728 17.2026C21.1853 16.5556 20.6898 16.0231 20.065 15.69C20.1753 15.3109 20.2311 14.9181 20.2308 14.5233C20.2308 12.85 19.2417 11.4183 17.8425 10.835C17.9186 10.4894 17.9572 10.1317 17.9583 9.76167C17.9583 7.13167 15.9233 5 13.4125 5C10.9017 5 8.8675 7.13167 8.8675 9.76167C8.86806 10.1317 8.90667 10.4894 8.98333 10.835C7.58333 11.4183 6.59417 12.85 6.59417 14.5233C6.59417 14.93 6.6525 15.3208 6.76083 15.69C6.25278 15.9608 5.82792 16.3646 5.5317 16.8582C5.23548 17.3519 5.07906 17.916 5.07917 18.4917ZM15.915 11.8383L16.215 10.4783C16.2656 10.2494 16.2911 10.0108 16.2917 9.7625C16.2917 7.97833 14.93 6.66667 13.4125 6.66667C11.895 6.66667 10.5342 7.97833 10.5342 9.76167C10.5347 10.01 10.5603 10.2486 10.6108 10.4775L10.91 11.8375L9.62417 12.3733C8.8575 12.6925 8.26083 13.51 8.26083 14.5233C8.26083 14.77 8.29667 15.0033 8.36083 15.2208L8.74083 16.5217L7.54583 17.16C7.24803 17.3176 7.01159 17.5703 6.87425 17.878C6.73691 18.1856 6.70658 18.5304 6.78812 18.8573C6.86965 19.1842 7.05834 19.4744 7.32407 19.6815C7.5898 19.8886 7.91725 20.0008 8.25417 20H12.5V17.5H14.1667V20H18.5717C18.9082 20 19.235 19.8875 19.5002 19.6803C19.7654 19.4731 19.9537 19.1832 20.0352 18.8567C20.1166 18.5302 20.0865 18.1858 19.9497 17.8783C19.8128 17.5709 19.5771 17.318 19.28 17.16L18.0842 16.5217L18.465 15.2217C18.53 15.0028 18.5631 14.7703 18.5642 14.5242C18.5642 13.51 17.9675 12.6925 17.2008 12.3742L15.915 11.8383ZM6.66667 32.9167C6.66667 32.8062 6.71056 32.7002 6.78871 32.622C6.86685 32.5439 6.97283 32.5 7.08333 32.5H32.9167C33.0272 32.5 33.1332 32.5439 33.2113 32.622C33.2894 32.7002 33.3333 32.8062 33.3333 32.9167C33.3333 33.0272 33.2894 33.1332 33.2113 33.2113C33.1332 33.2894 33.0272 33.3333 32.9167 33.3333H7.08333C6.97283 33.3333 6.86685 33.2894 6.78871 33.2113C6.71056 33.1332 6.66667 33.0272 6.66667 32.9167Z" fill="#F4DF1E"/>
<path d="M31.6667 13.7501C31.6667 14.3026 31.4472 14.8325 31.0565 15.2232C30.6658 15.6139 30.1359 15.8334 29.5833 15.8334C29.0308 15.8334 28.5009 15.6139 28.1102 15.2232C27.7195 14.8325 27.5 14.3026 27.5 13.7501C27.5 13.1975 27.7195 12.6676 28.1102 12.2769C28.5009 11.8862 29.0308 11.6667 29.5833 11.6667C30.1359 11.6667 30.6658 11.8862 31.0565 12.2769C31.4472 12.6676 31.6667 13.1975 31.6667 13.7501Z" fill="#F4DF1E"/>
</svg>
