<svg width="40" height="40" viewBox="0 0 40 40" fill="none" xmlns="http://www.w3.org/2000/svg">
<path d="M13.3333 6.66667H31.6667C32.1087 6.66667 32.5326 6.84226 32.8452 7.15482C33.1577 7.46738 33.3333 7.89131 33.3333 8.33333V16.6667C33.3333 17.1087 33.1577 17.5326 32.8452 17.8452C32.5326 18.1577 32.1087 18.3333 31.6667 18.3333H25M18.8117 18.8317C18.5052 19.1433 18.3334 19.5629 18.3333 20V31.6667C18.3333 32.1087 18.1577 32.5326 17.8452 32.8452C17.5326 33.1577 17.1087 33.3333 16.6667 33.3333H8.33333C7.89131 33.3333 7.46738 33.1577 7.15482 32.8452C6.84226 32.5326 6.66667 32.1087 6.66667 31.6667V8.33333C6.66667 7.86 6.86333 7.43333 7.18 7.13M6.66667 13.3333H10M6.66667 20H11.6667M6.66667 26.6667H10M20 6.66667V11.6667M26.6667 6.66667V10M5 5L35 35" stroke="#F4DF1E" stroke-width="2.5" stroke-linecap="round" stroke-linejoin="round"/>
</svg>
