<svg width="40" height="40" viewBox="0 0 40 40" fill="none" xmlns="http://www.w3.org/2000/svg">
<path d="M16.7947 4.35667C17.358 3.09 19.093 3.02833 19.773 4.16667L19.8713 4.35667L21.608 8.265C23.1245 11.6765 25.6463 14.5438 28.8363 16.4833L29.373 16.7983L32.4563 18.5317C32.7015 18.6689 32.9083 18.8653 33.0581 19.1029C33.2079 19.3406 33.2958 19.6119 33.3139 19.8923C33.332 20.1726 33.2796 20.453 33.1615 20.7079C33.0435 20.9628 32.8635 21.1841 32.638 21.3517L32.458 21.4683L29.373 23.2017C26.1186 25.0323 23.5008 27.8129 21.8697 31.1717L21.608 31.735L19.8713 35.6433C19.308 36.91 17.573 36.9717 16.893 35.8333L16.7947 35.6433L15.058 31.735C13.5416 28.3235 11.0197 25.4562 7.82967 23.5167L7.29301 23.2017L4.20967 21.4683C3.96455 21.3311 3.75768 21.1347 3.60789 20.8971C3.4581 20.6594 3.37017 20.3881 3.35212 20.1077C3.33406 19.8274 3.38644 19.547 3.5045 19.2921C3.62255 19.0372 3.80252 18.8159 4.02801 18.6483L4.20801 18.5317L7.29301 16.7983C10.5474 14.9677 13.1652 12.1871 14.7963 8.82833L15.058 8.265L16.7947 4.35667ZM18.333 9.10333C16.2597 13.77 12.8563 17.4933 8.39967 20C12.8563 22.5067 16.2597 26.23 18.333 30.8967C20.413 26.2183 23.8163 22.5033 28.2663 20C23.8097 17.4933 20.4063 13.77 18.333 9.10333ZM32.033 3.53667C32.8608 5.41576 34.2723 6.978 36.058 7.99167C36.3247 8.14167 36.3247 8.525 36.058 8.675C34.2718 9.68953 32.8602 11.253 32.033 13.1333C32.0013 13.2041 31.9499 13.2642 31.8848 13.3064C31.8198 13.3486 31.7439 13.371 31.6663 13.371C31.5888 13.371 31.5129 13.3486 31.4479 13.3064C31.3828 13.2642 31.3313 13.2041 31.2997 13.1333C30.4721 11.2536 29.0607 9.69077 27.2747 8.67667C27.2144 8.64229 27.1643 8.59257 27.1294 8.53256C27.0946 8.47256 27.0762 8.4044 27.0762 8.335C27.0762 8.2656 27.0946 8.19745 27.1294 8.13744C27.1643 8.07743 27.2144 8.02771 27.2747 7.99333C29.0612 6.97837 30.4727 5.41428 31.2997 3.53333C31.3313 3.46255 31.3828 3.40245 31.4479 3.36027C31.5129 3.3181 31.5888 3.29565 31.6663 3.29565C31.7439 3.29565 31.8198 3.3181 31.8848 3.36027C31.9499 3.40245 32.0013 3.46255 32.033 3.53333V3.53667Z" fill="#F4DF1E"/>
</svg>
